<svg width="102" height="103" viewBox="0 0 102 103" fill="none" xmlns="http://www.w3.org/2000/svg"><g clip-path="url(#clip0_4_87)"><path d="M57.2756 11.2469L70.0036 23.9748L57.2756 36.7027" stroke="white" stroke-width="10" stroke-linecap="round" stroke-linejoin="round"/><path d="M44.5477 91.857L31.8198 79.1291L44.5477 66.4012" stroke="white" stroke-width="10" stroke-linecap="round" stroke-linejoin="round"/><path d="M23.9516 49.9821C23.6836 54.5351 24.5733 59.0818 26.5377 63.198L24.316 56.8711L23.9516 49.9821ZM23.9516 49.9821C24.2196 45.429 25.6366 41.0181 28.0705 37.1608C30.5043 33.3036 33.8756 30.1257 37.8697 27.9238C41.8639 25.7218 46.3508 24.5676 50.9117 24.5687M23.9516 49.9821L24.6391 45.3151L26.2033 40.6678L29.5222 35.083L33.8849 30.6088C33.8849 30.6088 38.0187 27.5521 42.3052 25.9749C46.1352 24.5657 50.1165 24.6205 50.9117 24.5687M50.9117 24.5687L70.0036 23.9748C70.0036 23.9748 52.5969 24.459 50.9117 24.5687ZM31.8198 79.1291L50.9117 78.5351C55.4726 78.5363 59.9595 77.382 63.9536 75.1801C67.9478 72.9781 71.3191 69.8003 73.7529 65.943C76.1867 62.0858 77.6038 57.6748 77.8718 53.1218C78.1398 48.5688 77.2501 44.0221 75.2857 39.9059" stroke="white" stroke-width="10" stroke-linecap="round" stroke-linejoin="round"/></g><defs><clipPath id="clip0_4_87"><rect width="72" height="72" fill="white" transform="translate(0 51.5519) rotate(-45)"/></clipPath></defs></svg>